<svg width="131" height="36" viewBox="0 0 131 36" fill="none" xmlns="http://www.w3.org/2000/svg">
<path d="M21.0305 2.39835C21.6677 2.39835 22.1456 2.57415 22.4642 2.92575C22.8147 3.27735 23.0536 3.62895 23.1811 3.98055L33.5996 34.186C33.727 34.5057 33.7907 34.7454 33.7907 34.9052C33.7907 35.1929 33.6792 35.4486 33.4562 35.6723C33.265 35.8641 33.0261 35.96 32.7393 35.96H26.7176C26.0804 35.96 25.6184 35.8321 25.3317 35.5764C25.0768 35.2888 24.9175 35.0171 24.8538 34.7614L23.5156 30.7819H10.8031L9.46498 34.7614C9.40126 35.0171 9.22602 35.2888 8.93927 35.5764C8.68439 35.8321 8.23834 35.96 7.60112 35.96H1.57942C1.29267 35.96 1.03779 35.8641 0.814763 35.6723C0.623598 35.4486 0.528015 35.1929 0.528015 34.9052C0.528015 34.7454 0.591737 34.5057 0.71918 34.186L11.1377 3.98055C11.2651 3.62895 11.4881 3.27735 11.8067 2.92575C12.1572 2.57415 12.6511 2.39835 13.2883 2.39835H21.0305ZM13.2883 23.3504H21.0305L17.1594 11.8436L13.2883 23.3504Z" fill="#0072E6"/>
<path d="M62.5502 34.6655C62.5502 35.0171 62.4228 35.3207 62.1679 35.5764C61.913 35.8321 61.6103 35.96 61.2598 35.96H55.2382C54.8877 35.96 54.585 35.8321 54.3301 35.5764C54.0752 35.3207 53.9478 35.0171 53.9478 34.6655V22.5353C53.9478 21.1609 53.6133 20.0582 52.9442 19.2271C52.2751 18.3961 51.2237 17.9805 49.79 17.9805C48.3562 17.9805 47.3048 18.3961 46.6357 19.2271C45.9985 20.0582 45.6799 21.1609 45.6799 22.5353V34.6655C45.6799 35.0171 45.5525 35.3207 45.2976 35.5764C45.0427 35.8321 44.74 35.96 44.3895 35.96H38.3678C38.0174 35.96 37.7147 35.8321 37.4598 35.5764C37.2049 35.3207 37.0775 35.0171 37.0775 34.6655V12.323C37.0775 11.9714 37.2049 11.6678 37.4598 11.4121C37.7147 11.1563 38.0174 11.0285 38.3678 11.0285H44.1506C44.5011 11.0285 44.8037 11.1563 45.0586 11.4121C45.3135 11.6678 45.441 11.9714 45.441 12.323V13.4258C45.6958 13.1061 46.0144 12.7705 46.3968 12.4189C46.7791 12.0673 47.2411 11.7637 47.7827 11.5079C48.3244 11.2203 48.9456 10.9965 49.6466 10.8367C50.3794 10.6449 51.2237 10.549 52.1795 10.549C53.7088 10.549 55.1107 10.7728 56.3851 11.2203C57.6596 11.6358 58.7428 12.291 59.635 13.186C60.5589 14.081 61.2758 15.2157 61.7856 16.5901C62.2953 17.9646 62.5502 19.5947 62.5502 21.4805V34.6655Z" fill="#0072E6"/>
<path d="M76.4362 34.6655C76.4362 35.0171 76.3087 35.3207 76.0539 35.5764C75.799 35.8321 75.4963 35.96 75.1458 35.96H69.1241C68.7737 35.96 68.471 35.8321 68.2161 35.5764C67.9612 35.3207 67.8338 35.0171 67.8338 34.6655V12.323C67.8338 11.9714 67.9612 11.6678 68.2161 11.4121C68.471 11.1563 68.7737 11.0285 69.1241 11.0285H75.1458C75.4963 11.0285 75.799 11.1563 76.0539 11.4121C76.3087 11.6678 76.4362 11.9714 76.4362 12.323V34.6655ZM76.4362 7.09698C76.4362 7.44858 76.3087 7.75224 76.0539 8.00794C75.799 8.26365 75.4963 8.3915 75.1458 8.3915H69.1241C68.7737 8.3915 68.471 8.26365 68.2161 8.00794C67.9612 7.75224 67.8338 7.44858 67.8338 7.09698V2.25452C67.8338 1.90292 67.9612 1.59927 68.2161 1.34356C68.471 1.08785 68.7737 0.959999 69.1241 0.959999H75.1458C75.4963 0.959999 75.799 1.08785 76.0539 1.34356C76.3087 1.59927 76.4362 1.90292 76.4362 2.25452V7.09698Z" fill="#0072E6"/>
<path d="M97.6506 27.9052C97.1727 27.9052 96.7904 27.7774 96.5036 27.5216C96.2488 27.234 96.0417 26.9623 95.8824 26.7066L91.39 18.7956V34.6655C91.39 35.0171 91.2625 35.3207 91.0077 35.5764C90.7528 35.8321 90.4501 35.96 90.0996 35.96H83.839C83.4885 35.96 83.1858 35.8321 82.9309 35.5764C82.6761 35.3207 82.5486 35.0171 82.5486 34.6655V3.69287C82.5486 3.34128 82.6761 3.03762 82.9309 2.78192C83.1858 2.52621 83.4885 2.39835 83.839 2.39835H89.3828C90.02 2.39835 90.4979 2.57415 90.8165 2.92575C91.1351 3.27735 91.3422 3.53306 91.4378 3.69287L99.18 16.9737L106.922 3.69287C107.018 3.53306 107.225 3.27735 107.543 2.92575C107.862 2.57415 108.34 2.39835 108.977 2.39835H114.521C114.871 2.39835 115.174 2.52621 115.429 2.78192C115.684 3.03762 115.811 3.34128 115.811 3.69287V34.6655C115.811 35.0171 115.684 35.3207 115.429 35.5764C115.174 35.8321 114.871 35.96 114.521 35.96H108.26C107.91 35.96 107.607 35.8321 107.352 35.5764C107.097 35.3207 106.97 35.0171 106.97 34.6655V18.7956L102.478 26.7066C102.318 26.9623 102.095 27.234 101.808 27.5216C101.554 27.7774 101.187 27.9052 100.709 27.9052H97.6506Z" fill="white"/>
<path d="M130.528 34.6655C130.528 35.0171 130.401 35.3207 130.146 35.5764C129.891 35.8321 129.588 35.96 129.238 35.96H123.216C122.865 35.96 122.563 35.8321 122.308 35.5764C122.053 35.3207 121.926 35.0171 121.926 34.6655V12.323C121.926 11.9714 122.053 11.6678 122.308 11.4121C122.563 11.1563 122.865 11.0285 123.216 11.0285H129.238C129.588 11.0285 129.891 11.1563 130.146 11.4121C130.401 11.6678 130.528 11.9714 130.528 12.323V34.6655ZM130.528 7.09698C130.528 7.44858 130.401 7.75224 130.146 8.00794C129.891 8.26365 129.588 8.3915 129.238 8.3915H123.216C122.865 8.3915 122.563 8.26365 122.308 8.00794C122.053 7.75224 121.926 7.44858 121.926 7.09698V2.25452C121.926 1.90292 122.053 1.59927 122.308 1.34356C122.563 1.08785 122.865 0.959999 123.216 0.959999H129.238C129.588 0.959999 129.891 1.08785 130.146 1.34356C130.401 1.59927 130.528 1.90292 130.528 2.25452V7.09698Z" fill="white"/>
</svg>
